<svg width="67" height="55" viewBox="0 0 67 55" fill="none" xmlns="http://www.w3.org/2000/svg">
<path d="M13.6699 54.9388C9.81346 55.2195 6.66291 54.1789 4.21827 51.8169C1.90661 49.4451 0.620072 46.464 0.358655 42.8735L0.227947 41.0783C0.014941 38.1527 0.324178 35.0554 1.15566 31.7864C1.98714 28.5174 3.15107 25.2241 4.64746 21.9067C6.27683 18.5796 8.18668 15.4326 10.377 12.4657C12.7003 9.48917 15.1809 6.83538 17.8185 4.50435L27.7921 3.7782C23.5612 8.09682 20.0763 12.5617 17.3372 17.1727C14.5885 21.6508 12.889 25.852 12.239 29.7762L12.6379 29.7472C16.3614 29.4761 19.3076 30.4648 21.4766 32.7132C23.6456 34.9616 24.8415 37.6151 25.0641 40.6737L25.1513 41.8705C25.403 45.328 24.4857 48.3359 22.3993 50.8942C20.3032 53.3195 17.3934 54.6677 13.6699 54.9388ZM52.3675 52.1213C48.511 52.402 45.3605 51.3614 42.9158 48.9994C40.6042 46.6276 39.3176 43.6465 39.0562 40.056L38.9255 38.2608C38.7125 35.3352 39.0217 32.2379 39.8532 28.9689C40.6847 25.6999 41.8486 22.4067 43.345 19.0892C44.9744 15.7621 46.8843 12.6151 49.0746 9.64826C51.3979 6.67168 53.8784 4.01789 56.5161 1.68687L66.4897 0.960709C62.2588 5.27934 58.7738 9.74419 56.0348 14.3553C53.286 18.8333 51.5866 23.0345 50.9365 26.9588L51.3355 26.9297C55.0589 26.6586 58.0052 27.6473 60.1742 29.8957C62.3432 32.1441 63.539 34.7976 63.7617 37.8562L63.8488 39.053C64.1006 42.5106 63.1832 45.5184 61.0968 48.0767C59.0008 50.502 56.091 51.8502 52.3675 52.1213Z" fill="#F16101"/>
</svg>
